<svg xmlns="http://www.w3.org/2000/svg" xmlns:xlink="http://www.w3.org/1999/xlink" width="400" height="400" viewBox="0 0 400 400"><defs><clipPath id="b"><rect width="400" height="400"/></clipPath></defs><g id="a" clip-path="url(#b)"><g transform="translate(9.927 9.927)"><circle cx="190" cy="190" r="190" fill="#fe524d" transform="translate(0.073 0.073)"/></g><g><g transform="translate(17.347 130.424) rotate(-30) translate(138.233 0) rotate(30)"><path fill="none" stroke="#fff" stroke-dasharray="10" stroke-width="5" d="M116.323,276.466s-54.637-12.082-54.637-39.5V77.476C61.686,12.563,0,0,0,0" transform="translate(0 0)"/><g fill="#fff" stroke="#fff" stroke-width="1" transform="translate(28.229 153.204)"><ellipse cx="35.478" cy="8.748" stroke="none" rx="35.478" ry="8.748"/><ellipse cx="35.478" cy="8.748" fill="none" rx="34.978" ry="8.248"/></g><ellipse cx="35.478" cy="8.748" fill="#ffd5d4" rx="35.478" ry="8.748" transform="translate(28.229 179.448)"/><g fill="#fff" stroke="#fff" stroke-width="1" transform="translate(28.229 125.988)"><ellipse cx="35.478" cy="8.748" stroke="none" rx="35.478" ry="8.748"/><ellipse cx="35.478" cy="8.748" fill="none" rx="34.978" ry="8.248"/></g><ellipse cx="35.478" cy="8.748" fill="#ffd5d4" rx="35.478" ry="8.748" transform="translate(28.229 98.772)"/></g></g></g></svg>